<svg width="119" height="36" viewBox="0 0 119 36" fill="none" xmlns="http://www.w3.org/2000/svg">
<g id="MyGift">
<path id="Vector" d="M118.707 26.3848C118.246 26.6074 117.743 26.8066 117.197 26.9824C116.737 27.1348 116.203 27.2695 115.597 27.3867C114.991 27.5156 114.355 27.5801 113.688 27.5801C112.282 27.5801 111.263 27.2637 110.633 26.6309C110.003 25.998 109.687 24.9668 109.687 23.5371V11.584H107.305V10.4062L109.851 9.24609L111.524 5.43164H113.161V9.79102H118.416V11.584H113.161V21.6387C113.161 22.3535 113.221 22.9629 113.342 23.4668C113.476 23.959 113.664 24.3633 113.906 24.6797C114.161 24.9844 114.47 25.207 114.834 25.3477C115.209 25.4883 115.646 25.5586 116.143 25.5586C116.506 25.5586 116.84 25.5293 117.143 25.4707C117.458 25.4121 117.731 25.3418 117.961 25.2598C118.228 25.166 118.476 25.0605 118.707 24.9434V26.3848Z" fill="#FF4444"/>
<path id="Vector_2" d="M107.534 2.77734C107.534 3.14062 107.455 3.44531 107.297 3.69141C107.152 3.92578 106.976 4.11914 106.77 4.27148C106.576 4.41211 106.382 4.51758 106.188 4.58789C106.006 4.6582 105.879 4.69922 105.806 4.71094C105.782 4.6875 105.679 4.61719 105.497 4.5C105.327 4.37109 105.115 4.22461 104.861 4.06055C104.618 3.88477 104.351 3.70312 104.06 3.51562C103.782 3.32812 103.521 3.15234 103.279 2.98828C103.036 2.8125 102.83 2.67188 102.66 2.56641C102.491 2.44922 102.4 2.38477 102.387 2.37305C102.121 2.51367 101.854 2.71289 101.587 2.9707C101.333 3.22852 101.096 3.57422 100.878 4.00781C100.672 4.44141 100.502 4.96875 100.369 5.58984C100.248 6.19922 100.187 6.92578 100.187 7.76953V10.0723H104.806V11.918H100.187V24.8379C100.187 25.0605 100.26 25.248 100.405 25.4004C100.563 25.541 100.751 25.6172 100.969 25.6289L103.169 25.7344V27.1406H94.1136V25.7344L95.9503 25.6289C96.1685 25.6055 96.3503 25.5234 96.4958 25.3828C96.6534 25.2422 96.7322 25.0605 96.7322 24.8379V11.918H94.35V10.6523L96.7322 10.002C96.7322 9.4043 96.7504 8.87109 96.7867 8.40234C96.8352 7.92188 96.908 7.47656 97.0049 7.06641C97.1141 6.64453 97.2474 6.24023 97.405 5.85352C97.5626 5.45508 97.7566 5.03906 97.9869 4.60547C98.3506 3.92578 98.7688 3.33984 99.2416 2.84766C99.7265 2.34375 100.242 1.92773 100.787 1.59961C101.345 1.27148 101.921 1.02539 102.515 0.861328C103.121 0.697266 103.727 0.615234 104.333 0.615234C104.854 0.615234 105.315 0.673828 105.715 0.791016C106.115 0.908203 106.449 1.06641 106.715 1.26562C106.994 1.46484 107.2 1.69336 107.334 1.95117C107.467 2.20898 107.534 2.48438 107.534 2.77734Z" fill="#FF4444"/>
<path id="Vector_3" d="M88.7231 3.84961C88.7231 4.1543 88.6625 4.44727 88.5412 4.72852C88.4321 4.99805 88.2745 5.23242 88.0685 5.43164C87.8624 5.63086 87.6199 5.78906 87.3411 5.90625C87.0744 6.02344 86.7834 6.08203 86.4682 6.08203C86.153 6.08203 85.85 6.02344 85.559 5.90625C85.2802 5.78906 85.0377 5.63086 84.8317 5.43164C84.6256 5.23242 84.4619 4.99805 84.3407 4.72852C84.2195 4.44727 84.1588 4.1543 84.1588 3.84961C84.1588 3.54492 84.2195 3.25781 84.3407 2.98828C84.4619 2.71875 84.6256 2.48438 84.8317 2.28516C85.0377 2.08594 85.2802 1.93359 85.559 1.82812C85.85 1.71094 86.153 1.65234 86.4682 1.65234C86.7834 1.65234 87.0744 1.71094 87.3411 1.82812C87.6199 1.93359 87.8624 2.08594 88.0685 2.28516C88.2745 2.48438 88.4321 2.71875 88.5412 2.98828C88.6625 3.25781 88.7231 3.54492 88.7231 3.84961ZM81.8858 27.1406V25.7344L83.7042 25.6289C83.9346 25.6055 84.1225 25.5234 84.2679 25.3828C84.4134 25.2422 84.4862 25.0605 84.4862 24.8379V11.9883H81.9222V10.7227L86.4682 9.35156H87.9412V24.8379C87.9412 25.0605 88.0139 25.2422 88.1594 25.3828C88.317 25.5234 88.5049 25.6055 88.7231 25.6289L90.6324 25.7344V27.1406H81.8858Z" fill="#FF4444"/>
<path id="Vector_4" d="M76.6589 17.209C76.3922 17.2324 76.1922 17.3203 76.0589 17.4727C75.9376 17.6133 75.877 17.7773 75.877 17.9648V26.2793C75.1254 26.5488 74.3253 26.7891 73.4767 27C72.7493 27.1875 71.9128 27.3516 70.9673 27.4922C70.0338 27.6445 69.064 27.7207 68.0578 27.7207C66.6758 27.7207 65.3908 27.5625 64.2027 27.2461C63.0268 26.9297 61.9539 26.4844 60.9841 25.9102C60.0264 25.3359 59.1778 24.6562 58.4383 23.8711C57.6988 23.0742 57.0745 22.207 56.5653 21.2695C56.0683 20.332 55.6925 19.3359 55.4379 18.2812C55.1833 17.2148 55.056 16.125 55.056 15.0117C55.056 13.125 55.3652 11.4082 55.9834 9.86133C56.6017 8.30273 57.4927 6.97266 58.6565 5.87109C59.8203 4.76953 61.2326 3.91992 62.8934 3.32227C64.5664 2.71289 66.4454 2.4082 68.5306 2.4082C69.161 2.4082 69.7671 2.44336 70.349 2.51367C70.943 2.57227 71.5128 2.6543 72.0583 2.75977C72.6038 2.85352 73.1373 2.96484 73.6585 3.09375L75.2224 3.48047L75.8406 3.63867V9.45703H73.604L73.0039 6.22266C72.9675 6.01172 72.8766 5.83594 72.7311 5.69531C72.5857 5.54297 72.4281 5.43164 72.2583 5.36133C72.2099 5.34961 72.1371 5.32031 72.0401 5.27344C71.8462 5.19141 71.6219 5.10352 71.3673 5.00977C71.1127 4.91602 70.8279 4.82812 70.5127 4.74609C70.2096 4.65234 69.8762 4.57617 69.5125 4.51758C69.161 4.45898 68.7852 4.42969 68.3851 4.42969C67.0395 4.42969 65.809 4.6582 64.6937 5.11523C63.5784 5.57227 62.6207 6.24023 61.8206 7.11914C61.0205 7.99805 60.3961 9.08789 59.9476 10.3887C59.5112 11.6777 59.293 13.1602 59.293 14.8359C59.293 16.5586 59.5172 18.0938 59.9658 19.4414C60.4143 20.7891 61.0508 21.9258 61.8751 22.8516C62.7116 23.7773 63.7178 24.4863 64.8937 24.9785C66.0696 25.459 67.385 25.6992 68.8397 25.6992C69.2519 25.6992 69.6459 25.6699 70.0217 25.6113C70.3975 25.5527 70.7309 25.4941 71.0218 25.4355C71.3128 25.3652 71.5552 25.3008 71.7492 25.2422C71.9432 25.1836 72.0644 25.1543 72.1129 25.1543V17.9648C72.1129 17.7773 72.0462 17.6133 71.9128 17.4727C71.7916 17.3203 71.5977 17.2324 71.3309 17.209L68.8397 17.0332V15.4688H78.5501V17.0332L76.6589 17.209Z" fill="#FF4444"/>
<path id="Vector_5" d="M50.1565 11.4082L43.01 28.248C42.8888 28.541 42.7191 28.9336 42.5009 29.4258C42.2827 29.918 42.022 30.4395 41.719 30.9902C41.428 31.5527 41.1007 32.1035 40.737 32.6426C40.3854 33.1816 40.0157 33.6387 39.6278 34.0137C39.1792 34.4473 38.6822 34.7812 38.1367 35.0156C37.6032 35.2617 37.0213 35.3848 36.391 35.3848C35.9545 35.3848 35.5666 35.3262 35.2272 35.209C34.8877 35.1035 34.6028 34.957 34.3725 34.7695C34.1422 34.582 33.9664 34.3594 33.8452 34.1016C33.7239 33.8555 33.6633 33.5977 33.6633 33.3281C33.6633 32.918 33.7542 32.5371 33.9361 32.1855C34.1301 31.8457 34.4392 31.5059 34.8635 31.166L38.3549 32.7129C38.6579 32.4199 38.9671 32.0332 39.2823 31.5527C39.5975 31.084 39.8945 30.5859 40.1733 30.0586C40.4521 29.5312 40.7067 29.0039 40.937 28.4766C41.1674 27.9609 41.3492 27.5039 41.4826 27.1055L35.1544 11.4082L33.0996 11.1973V9.79102H41.3371V11.1973L39.555 11.3027C39.3853 11.3262 39.2398 11.3906 39.1186 11.4961C39.0095 11.6016 38.9549 11.7305 38.9549 11.8828C38.9549 11.9766 38.9671 12.0469 38.9913 12.0938L43.3192 22.7109L47.7379 12.0938C47.7743 12.0234 47.7925 11.9473 47.7925 11.8652C47.7925 11.7246 47.7379 11.6016 47.6288 11.4961C47.5319 11.3789 47.3985 11.3145 47.2288 11.3027L45.4649 11.1973V9.79102H52.1022V11.1973L50.1565 11.4082Z" fill="#FF4444"/>
<path id="Vector_6" d="M21.0718 27.1406V25.5938L23.0539 25.4531C23.3206 25.4297 23.5206 25.3359 23.654 25.1719C23.7994 25.0078 23.8722 24.8379 23.8722 24.6621V4.81641L15.3074 27.1406H13.4526L5.17875 5.15039V24.6621C5.17875 24.8379 5.24542 25.0078 5.37878 25.1719C5.52425 25.3359 5.73034 25.4297 5.99704 25.4531L8.1246 25.5938V27.1406H0.0689697V25.5938L2.19653 25.4531C2.46323 25.4297 2.6572 25.3359 2.77843 25.1719C2.91178 25.0078 2.97845 24.8379 2.97845 24.6621V5.4668C2.97845 5.29102 2.91178 5.12109 2.77843 4.95703C2.6572 4.79297 2.46323 4.69922 2.19653 4.67578L0.0689697 4.53516V2.98828H8.41555V3.95508L15.1619 21.6387L21.9083 4.06055V2.98828H30.4731V4.53516L28.4546 4.67578C28.1879 4.69922 27.9818 4.79297 27.8363 4.95703C27.703 5.12109 27.6363 5.29102 27.6363 5.4668V24.6621C27.6363 24.8379 27.703 25.0078 27.8363 25.1719C27.9818 25.3359 28.1879 25.4297 28.4546 25.4531L30.4731 25.5938V27.1406H21.0718Z" fill="#FF4444"/>
</g>
</svg>
